# xmcd
#
# Track frame offsets: 
#        150
#        7291
#        28037
#        52697
#        73126
#        97828
#        136216
#        143746
#        197453
#        251428
#        271369
#
# Disc length: 3821 seconds
#
# Revision: 0
# Processed by: cddbd v1.5.2PL0 Copyright (c) Steve Scherf et al.
# Submitted via: ExactAudioCopy v1.0b3
#
DISCID=920eeb0b
DTITLE=Gov’t Mule - Beacon Theatre 2012-12-31-D2
DYEAR=2012
DGENRE=Blues
TTITLE0=Freddie King Introduction
TTITLE1=Pack It Up
TTITLE2=I Got The Same Old Blues
TTITLE3=Only Getting Second Best
TTITLE4=Texas Flyer
TTITLE5=She's A Burglar
TTITLE6=Kirk West Albert King Intro
TTITLE7=Blues Power
TTITLE8=Crosscut Saw
TTITLE9=Down Don't Bother Me
TTITLE10=Born Under A Bad Sign
EXTD=
EXTT0=
EXTT1=
EXTT2=
EXTT3=
EXTT4=
EXTT5=
EXTT6=
EXTT7=
EXTT8=
EXTT9=
EXTT10=
PLAYORDER=
